<svg width="16" height="16" viewBox="0 0 16 16" fill="none" xmlns="http://www.w3.org/2000/svg">
<g clip-path="url(#clip0_40_2)">
<path d="M0.21 9.354H15.47V12.014H10.01V14.296H5.67V12.014H0.21V9.354ZM0.742 1.766C5.18 1.332 10.22 1.332 14.658 1.766L14.518 4.034C10.57 3.81 8.484 3.74 5.782 3.81C5.74 4.006 5.698 4.174 5.656 4.328H14.238V5.938H5.502C5.558 6.386 5.81 6.512 6.496 6.512C8.904 6.512 12.082 6.428 14.658 6.302L14.798 8.696C11.564 8.878 9.24 8.934 5.866 8.934C2.17 8.934 1.162 8.402 1.162 6.442C1.162 5.728 1.302 4.916 1.596 3.992L0.882 4.034L0.742 1.766Z" fill="#A81F1D"/>
</g>
<defs>
<clipPath id="clip0_40_2">
<rect width="16" height="16" fill="white"/>
</clipPath>
</defs>
</svg>
